/* XPM */
static char * bottom_left_active_xpm[] = {
"3 3 4 1",
" 	c None",
".	c #6E85B0 s active_shadow_2",
"+	c #EEEEEE s active_color_2",
"@      c #EEEEEE s active_hilight_2",
".@+",
" .@",
"  ."};
