/* XPM */
static char * left_inactive_xpm[] = {
"3 8 4 1",
" 	c None",
".	c #6E85B0 s inactive_shadow_1",
"+	c #EEEEEE s inactive_color_2",
"@      c #EEEEEE s inactive_hilight_2",
".@+",
".@+",
".@+",
".@+",
".@+",
".@+",
".@+",
".@+"};
