/* XPM */
static char * button_active_xpm[] = {
"17 3 4 1",
".	c #6D84AF s active_shadow_2",
"+      c #EEEEEE s active_hilight_2",
"&	c #657EAD s active_color_2",
"-	c #C5CFE0 s active_border_color",
".................",
"+++++++++++++++++",
"&&&&&&&&&&&&&&&&&"};

