/* XPM */
static char * top_left_inactive_xpm[] = {
"8 3 4 1",
" 	c None",
".	c #6E85B0 s inactive_shadow_1",
"+      c #EEEEEE s inactive_hilight_2",
"#	c #677DA6 s inactive_color_2",
"  ......",
" .#+++++",
".+######"};
