/* XPM */
static char * top_right_active_xpm[] = {
"8 3 4 1",
" 	c None",
".	c #6E85B0 s active_shadow_2",
"+      c #EEEEEE s active_hilight_2",
"#	c #677DA6 s active_color_2",
"......  ",
"+++++#. ",
"######+."};
