/* XPM */
static char * bottom_right_inactive_xpm[] = {
"3 3 4 1",
" 	c None",
".	c #F0F0F0 s inactive_color_2",
"+	c #9FB0CA s inactive_shadow_1",
"@      c #EEEEEE s inactive_hilight_2",
".@+",
"@+ ",
"+  "};
