/* XPM */
static char * close_active_xpm[] = {
"16 3 4 1",
".	c #6D84AF s active_shadow_2",
"@      c #EEEEEE s active_hilight_2",
"+	c #657EAD s active_color_2",
"#	c #CC3B5F",
"................",
"################",
"################"};
